<svg xmlns="http://www.w3.org/2000/svg" xml:space="preserve" height="160" width="223">
	<g style="font-style:normal;font-weight:400;font-size:84px;font-family:'Playfair Display';white-space:pre;opacity:1;fill:#8808c3;fill-rule:nonzero;stroke:none;stroke-width:1;stroke-linecap:butt;stroke-linejoin:miter;stroke-miterlimit:4;stroke-dasharray:none;stroke-dashoffset:0" aria-label="C&amp;F">
		<path d="M-56.786-34.258q5.544 0 9.072 1.68 3.612 1.596 6.384 3.78 1.68 1.26 2.52.336.924-1.008 1.26-4.62h1.932q-.168 3.108-.252 7.56-.084 4.452-.084 11.76h-1.932q-.588-3.612-1.092-5.712-.504-2.184-1.26-3.696-.672-1.512-1.848-3.024-2.604-3.444-6.552-4.956-3.948-1.596-8.316-1.596-4.116 0-7.476 2.1-3.276 2.016-5.712 5.88-2.352 3.864-3.696 9.324-1.26 5.46-1.26 12.264 0 7.056 1.428 12.516 1.428 5.376 3.948 9.072 2.604 3.696 6.048 5.628 3.528 1.848 7.56 1.848 3.78 0 7.896-1.512t6.468-4.872q1.848-2.436 2.52-5.292.756-2.856 1.344-7.98h1.932q0 7.644.084 12.348.084 4.62.252 7.812h-1.932q-.336-3.612-1.176-4.536-.756-.924-2.604.252-3.108 2.184-6.636 3.864-3.444 1.596-8.904 1.596-7.98 0-14.028-3.612-5.964-3.612-9.324-10.416-3.276-6.804-3.276-16.38 0-9.408 3.444-16.464 3.444-7.056 9.408-11.004 6.048-3.948 13.86-3.948zM-4.412-32.578q3.192 0 5.292.756 2.1.672 3.444 1.764 1.68 1.344 2.352 2.94.756 1.512.756 2.856 0 2.1-1.512 3.276-1.428 1.176-3.192 1.176-1.68 0-3.024-1.092T-1.64-24.01q0-1.848 1.26-3.108 1.26-1.344 3.192-1.512-.336-1.092-2.1-1.848-1.68-.84-4.284-.84-4.284 0-7.056 2.604-2.688 2.52-2.688 7.392 0 2.352.84 4.788.924 2.436 3.444 4.788 1.428-.252 2.94-.336 1.512-.168 2.268-.168 3.36 0 3.36 1.932 0 .756-.672 1.176-.588.42-1.68.42-1.596 0-3.36-.672-1.764-.756-2.772-1.176-4.872 1.428-7.896 4.704-3.024 3.192-3.024 9.072 0 5.796 3.024 9.828 3.024 4.032 8.064 6.216 5.124 2.1 11.424 2.1 4.452 0 8.4-1.008 4.032-1.092 7.056-3.108 3.108-2.016 4.872-4.788 1.764-2.856 1.764-6.468 0-1.596-.672-4.032-.672-2.52-2.772-4.872-2.1-2.436-6.468-3.78l1.008-.84q6.132 1.848 8.736 5.964 2.604 4.032 2.604 9.072 0 5.04-3.024 9.66t-8.736 7.56Q9.7 27.566 1.552 27.566q-7.224 0-13.44-2.52-6.216-2.52-9.996-7.224-3.78-4.704-3.78-11.172 0-4.536 1.764-7.728 1.764-3.276 4.368-5.376 2.604-2.1 5.208-3.192 2.604-1.176 4.2-1.596-4.2-1.848-6.384-4.788-2.1-2.94-2.1-6.048 0-2.016.924-3.864.924-1.932 2.688-3.444 1.764-1.512 4.368-2.352 2.688-.84 6.216-.84zm30.576-1.68q5.208 0 8.736 3.024 3.528 2.94 3.528 8.316 0 4.284-2.352 7.224-2.268 2.856-5.628 4.536-1.932.924-5.124 2.016-3.108 1.092-6.72 2.184-3.528 1.092-6.804 2.184Q8.608-3.766 6.592-3.01 3.484-1.834 1.3-.07-.8 1.61-.8 4.298q0 2.184 1.26 3.696t3.024 2.268q1.848.756 3.444.756 1.176 0 2.94-.42 1.848-.504 2.1-1.428-1.344-.252-2.688-1.176-1.26-1.008-1.26-3.108 0-2.016 1.344-3.192Q10.708.518 12.64.518q2.016 0 3.192 1.26 1.26 1.26 1.26 3.276 0 2.352-1.596 4.032-1.512 1.596-3.864 2.436-2.268.756-4.536.756-2.352 0-4.788-1.008-2.436-1.008-4.032-3.108Q-3.32 5.978-3.32 2.45q0-4.368 2.94-7.308 2.94-3.024 8.652-4.956 2.52-.84 6.132-1.848 3.612-1.008 7.392-2.184 3.864-1.176 6.972-2.604 4.2-1.932 5.712-3.948 1.512-2.016 1.512-4.116 0-3.612-2.94-6.048-2.856-2.436-6.804-2.436-1.008 0-1.68.168-.672.168-.84.588 1.176.588 1.764 1.68.588 1.092.588 2.184 0 1.764-1.428 2.94-1.344 1.176-3.276 1.176-1.596 0-3.024-1.008-1.428-1.092-1.428-3.192 0-2.184 1.428-3.444 1.512-1.26 3.612-1.764 2.184-.588 4.2-.588zM85.627-33.082q-.336 3.192-.504 6.216-.084 2.94-.084 4.536 0 2.016.084 3.78.084 1.764.168 3.108h-1.932q-.588-5.88-1.596-9.24-1.008-3.444-3.528-4.956-2.52-1.512-7.812-1.512H65.13q-2.856 0-4.368.504-1.428.42-1.932 1.932-.504 1.428-.504 4.536v41.664q0 3.024.588 4.536.672 1.512 2.52 2.016 1.848.504 5.376.672v1.68q-2.184-.168-5.544-.168-3.36-.084-6.804-.084-3.276 0-6.132.084-2.856 0-4.62.168v-1.68q2.856-.168 4.284-.672 1.512-.504 2.016-2.016t.504-4.536v-41.664q0-3.108-.504-4.536-.504-1.512-2.016-2.016-1.428-.588-4.284-.672v-1.68q4.116.084 8.82.168 4.704.084 8.82.084h15.456q4.956-.084 8.82-.252zM72.607-3.514v1.68h-16.8v-1.68zm1.596-11.088q-.336 4.788-.336 7.308.084 2.52.084 4.62t.084 4.62q.084 2.52.42 7.308h-1.932q-.336-2.688-.84-5.208-.42-2.604-2.016-4.2-1.512-1.68-5.208-1.68v-1.68q3.696 0 5.124-1.932 1.512-1.932 1.932-4.536.42-2.604.756-4.62z" transform="translate(86.25 84.56)" />
	</g>
</svg>
