<svg xmlns="http://www.w3.org/2000/svg" xml:space="preserve" viewBox="2.75 2.4 219.29 156.13">
	<path d="M87.774 41.142H63.378L34.189 7.087h-4.865l12.162 34.055H17.162L5 28.979v38.918l12.162-12.162h24.324L29.324 89.79h4.865l29.188-34.055h24.396a7.224 7.224 0 0 0 7.226-7.226v-.143a7.222 7.222 0 0 0-7.225-7.224" transform="matrix(.54 0 0 .54 42.37 110.042)" style="opacity:1;fill:#7e05aa;fill-rule:nonzero;stroke:none;stroke-width:1;stroke-linecap:butt;stroke-linejoin:miter;stroke-miterlimit:4;stroke-dasharray:none;stroke-dashoffset:0">
	</path>
	<path d="M55 80H45c-1.4 0-2.5 1.1-2.5 2.5v10c0 1.4 1.1 2.5 2.5 2.5h10c1.4 0 2.5-1.1 2.5-2.5v-10c0-1.4-1.1-2.5-2.5-2.5Zm-2.5 10h-5v-5h5z" transform="matrix(.54 0 0 .48 96.57 .04)" style="opacity:1;fill:#7e05aa;fill-rule:nonzero;stroke:none;stroke-width:1;stroke-linecap:butt;stroke-linejoin:miter;stroke-miterlimit:4;stroke-dasharray:none;stroke-dashoffset:0">
	</path>
	<path d="M50 5c-8.7 0-16.8 3.4-23 9.5-6.1 6.1-9.5 14.3-9.5 23s3.4 16.8 9.5 23l13.8 13.8c.5.5 1.1.7 1.8.7h14.9c.7 0 1.3-.3 1.8-.7L73 60.5c6.1-6.1 9.5-14.3 9.5-23s-3.4-16.8-9.5-23C66.8 8.4 58.7 5 50 5ZM30.6 56.9c-5.2-5.2-8.1-12.1-8.1-19.4 0-7.3 2.9-14.3 8.1-19.4 2.4-2.4 5.2-4.3 8.2-5.6-.6.9-1.1 1.8-1.6 2.8-6.3 12.5-6.3 32.1 0 44.7l3.7 7.4zm16.9 12.4-5.9-11.7c-5.5-11.1-5.5-29.1 0-40.2 1.7-3.4 3.7-5.7 5.9-6.8zm5 0V10.6c2.1 1.1 4.2 3.4 5.9 6.8 5.5 11.1 5.5 29.1 0 40.2zm16.9-12.4L59.1 67.3l3.7-7.4c6.3-12.5 6.3-32.1 0-44.7-.5-1-1-1.9-1.6-2.8 3 1.4 5.8 3.2 8.2 5.6 5.2 5.2 8.1 12.1 8.1 19.4 0 7.3-2.9 14.4-8.1 19.5z" transform="matrix(.54 0 0 .48 96.555 .003)" style="opacity:1;fill:#7e05aa;fill-rule:nonzero;stroke:none;stroke-width:1;stroke-linecap:butt;stroke-linejoin:miter;stroke-miterlimit:4;stroke-dasharray:none;stroke-dashoffset:0">
	</path>
	<path d="M63.3 72.9c-17.2 0-40.8-.9-44.4-2-3.6-1.1-6.1-3.3-7.4-6.6-2.5-6.1-.2-14.4 2.6-19.6.4-.7 1.3-1 2-.6.3.2.5.4.7.7 3.5-.7 12.1-1.2 34.2-.5 13.3.5 34 1.5 37 2.7 2.8 1 2.9 8.3 2.8 10.9-.5 8.2-4.3 13.4-10.4 14.4-2.7.4-9.2.6-17.1.6zM15.6 48.3c-2 4.7-3.1 10.7-1.4 14.9 1 2.4 2.9 4 5.5 4.9 4.3 1.3 51.2 2.7 60.1 1.3 3.2-.5 5.5-2.6 6.8-6.1 2-5.4.9-12.2.1-13.4-1.9-.7-16.3-1.8-35.1-2.4-21.9-.7-33.7-.2-35.4.6-.1 0-.3.1-.6.2z" transform="matrix(.66 0 0 .66 161.06 57.002)" style="opacity:1;fill:#7e05aa;fill-rule:nonzero;stroke:none;stroke-width:1;stroke-linecap:butt;stroke-linejoin:miter;stroke-miterlimit:4;stroke-dasharray:none;stroke-dashoffset:0">
	</path>
	<path d="M79.4 47.5c-.6 0-1.2-.4-1.4-.9-.6-1.4-1.1-3-1.6-4.6-1.4-4.5-2.8-9.1-6.4-10.9-2.8-1.4-8.6-1.4-13.3-1.4-2.3 0-4.4 0-6.1-.2-.7-.1-1.6-.2-2.5-.2-5.5-.6-13.9-1.4-17.9.2-5 2-6.4 8.9-7.6 14.4l-.2 1.1c-.2.8-1 1.3-1.8 1.2-.8-.2-1.3-1-1.2-1.8l.2-1.1c1.2-5.9 2.9-13.9 9.4-16.5 4.6-1.9 13.1-1 19.3-.4.9.1 1.7.2 2.5.2 1.6.1 3.6.1 5.9.2 5.3 0 11.2 0 14.6 1.7 4.7 2.4 6.4 7.9 7.9 12.7.5 1.6.9 3 1.5 4.3.3.8-.1 1.6-.8 2h-.5z" transform="matrix(.66 0 0 .66 161.075 56.98)" style="opacity:1;fill:#7e05aa;fill-rule:nonzero;stroke:none;stroke-width:1;stroke-linecap:butt;stroke-linejoin:miter;stroke-miterlimit:4;stroke-dasharray:none;stroke-dashoffset:0">
	</path>
	<path d="M27.1 65.1c-1.7 0-3.5-.8-5.2-2.4l-.2-.2c-1.3-1.9-1.7-3.7-1.2-5.3.4-1.3 1.4-2.3 2.9-3.2 0-.6.5-1.2 1.1-1.4 6-1.5 8 1.4 8.6 2.7 1.3 2.8 0 6.8-2.8 8.7-.9.7-2 1.1-3.2 1.1zm-3-4.5c1.2 1.1 2.9 2.1 4.7.9 1.6-1.1 2.4-3.5 1.8-5-.4-.9-1.3-1.2-2.4-1.3-.2.1-.3.2-.6.3-2.3.7-3.9 1.7-4.2 2.7-.2.6 0 1.4.7 2.4z" transform="matrix(.66 0 0 .66 161.073 57.012)" style="opacity:1;fill:#7e05aa;fill-rule:nonzero;stroke:none;stroke-width:1;stroke-linecap:butt;stroke-linejoin:miter;stroke-miterlimit:4;stroke-dasharray:none;stroke-dashoffset:0">
	</path>
	<path d="M74.2 65c-1.7 0-3.5-.8-5.2-2.4l-.2-.2c-1.3-1.9-1.7-3.7-1.2-5.3.4-1.3 1.4-2.3 2.9-3.2 0-.6.5-1.2 1.1-1.4 6-1.5 8 1.4 8.6 2.7 1.3 2.8 0 6.8-2.8 8.7-.9.7-2 1.1-3.2 1.1zm-3-4.5c1.2 1.1 2.9 2.1 4.7.9 1.6-1.1 2.4-3.5 1.8-5-.4-.9-1.3-1.2-2.4-1.3-.2.1-.3.2-.6.3-2.3.7-3.9 1.7-4.2 2.7-.2.6 0 1.4.7 2.4z" transform="matrix(.66 0 0 .66 161.13 57.011)" style="opacity:1;fill:#7e05aa;fill-rule:nonzero;stroke:none;stroke-width:1;stroke-linecap:butt;stroke-linejoin:miter;stroke-miterlimit:4;stroke-dasharray:none;stroke-dashoffset:0">
	</path>
	<path d="M88.2 48.4c-.9 0-1.7-.2-2.5-.4s-1.3-1-1.1-1.8c.2-.8 1-1.3 1.8-1.1 1.7.4 2.4.3 2.6.1.1 0 .2-.1.2-.4.3-1.2-.1-2.2-1.2-2.7-1.7-.8-4-1.3-4.9-.8-.4.2-.8 1.9-.5 3.5.1.8-.5 1.6-1.3 1.7-.8.1-1.6-.5-1.7-1.3-.3-1.9-.1-5.4 2.1-6.6 2.7-1.5 7.1.5 7.6.8 2.3 1.1 3.4 3.5 2.8 6.1-.2 1-.8 1.8-1.6 2.3-.6.5-1.4.6-2.3.6z" transform="matrix(.66 0 0 .66 161.147 56.999)" style="opacity:1;fill:#7e05aa;fill-rule:nonzero;stroke:none;stroke-width:1;stroke-linecap:butt;stroke-linejoin:miter;stroke-miterlimit:4;stroke-dasharray:none;stroke-dashoffset:0">
	</path>
	<path d="M15.1 45.8c-2.9 0-6.2-.7-7.2-4.1-.8-2.6.6-5.2 3.3-6.4 2.3-1.1 6.2-.9 8.3.5 2.4 1.5 2.4 4.4 2.4 6.4v.7c0 .8-.6 1.5-1.5 1.5-.4 0-.7-.1-1-.3 0 .8-.6 1.5-1.4 1.6-.8 0-1.8.1-2.9.1zm2.7-3.1c.4 0 .7.1 1 .3v-.9c0-1.9-.1-3.3-1-3.9-1.2-.8-4-.9-5.4-.3-.5.2-2.1 1.1-1.6 2.8.6 2.1 3.8 2.1 7 1.8v.2z" transform="matrix(.66 0 0 .66 161.055 56.99)" style="opacity:1;fill:#7e05aa;fill-rule:nonzero;stroke:none;stroke-width:1;stroke-linecap:butt;stroke-linejoin:miter;stroke-miterlimit:4;stroke-dasharray:none;stroke-dashoffset:0">
	</path>
	<path d="M28.3 82.9c-2.6 0-5.7-.3-8.1-1.2-.5-.2-.9-.7-1-1.2-.3-2.5-.2-5.1-.2-7.6 0-1.1.1-2.2.1-3.3v-.1c0-.8.7-1.5 1.5-1.5s1.5.7 1.5 1.5v.6c0 1 0 2-.1 3-.1 2.1-.1 4.2 0 6.2 2.5.7 5.6.8 8.1.7.7-2.8 1-5.8 1-9 0-.8.7-1.5 1.5-1.5s1.5.7 1.5 1.5c0 3.9-.4 7.4-1.3 10.8-.2.6-.7 1-1.3 1.1h-3.2z" transform="matrix(.66 0 0 .66 161.075 57.031)" style="opacity:1;fill:#7e05aa;fill-rule:nonzero;stroke:none;stroke-width:1;stroke-linecap:butt;stroke-linejoin:miter;stroke-miterlimit:4;stroke-dasharray:none;stroke-dashoffset:0">
	</path>
	<path d="M71.7 83c-2.1 0-4.2-.2-5.7-.5-.7-.2-1.2-.8-1.2-1.4v-2.6c0-2.8 0-4.5-.3-6.8-.1-.8.5-1.6 1.3-1.7.8-.1 1.6.5 1.7 1.3.3 2.4.3 4.3.3 7.1v1.4c2.3.3 5.5.3 7.8 0v-.5c.2-2.7.5-5.5.1-8-.1-.8.4-1.6 1.2-1.7.8-.1 1.6.4 1.7 1.2.5 2.8.2 6-.1 8.8 0 .6-.1 1.1-.1 1.6-.1.7-.5 1.2-1.2 1.3-1.2.3-3.4.5-5.5.5Z" transform="matrix(.66 0 0 .66 161.128 57.036)" style="opacity:1;fill:#7e05aa;fill-rule:nonzero;stroke:none;stroke-width:1;stroke-linecap:butt;stroke-linejoin:miter;stroke-miterlimit:4;stroke-dasharray:none;stroke-dashoffset:0">
	</path>
	<path d="M70.1 83.8c-.8 0-1.5-.7-1.5-1.5 0-.6-.1-1.5-.2-2.5-.2-2.9-.5-6.2.7-8.2.5-.7 1.4-.9 2.1-.4.7.5.9 1.4.4 2.1-.7 1-.4 4.2-.2 6.3.1 1 .2 2 .2 2.7 0 .8-.7 1.5-1.5 1.5z" transform="matrix(.66 0 0 .66 161.13 57.035)" style="opacity:1;fill:#7e05aa;fill-rule:nonzero;stroke:none;stroke-width:1;stroke-linecap:butt;stroke-linejoin:miter;stroke-miterlimit:4;stroke-dasharray:none;stroke-dashoffset:0">
	</path>
	<path d="M73.2 83.2c-.8 0-1.5-.7-1.5-1.5v-1.5c0-2.7 0-6.1 1.1-8.6.3-.8 1.2-1.1 2-.8.8.3 1.1 1.2.8 2-.8 1.9-.8 4.9-.8 7.4v1.5c-.1.8-.8 1.5-1.6 1.5z" transform="matrix(.66 0 0 .66 161.136 57.038)" style="opacity:1;fill:#7e05aa;fill-rule:nonzero;stroke:none;stroke-width:1;stroke-linecap:butt;stroke-linejoin:miter;stroke-miterlimit:4;stroke-dasharray:none;stroke-dashoffset:0">
	</path>
	<path d="M24 81c-.8 0-1.5-.6-1.5-1.4-.1-1.8.1-3.7.3-5.4.2-1.4.3-2.8.3-4.2 0-.8.7-1.5 1.5-1.5s1.5.7 1.5 1.5c0 1.5-.2 3-.3 4.5-.2 1.7-.4 3.4-.3 4.9 0 .8-.6 1.6-1.5 1.6z" transform="matrix(.66 0 0 .66 161.072 57.035)" style="opacity:1;fill:#7e05aa;fill-rule:nonzero;stroke:none;stroke-width:1;stroke-linecap:butt;stroke-linejoin:miter;stroke-miterlimit:4;stroke-dasharray:none;stroke-dashoffset:0">
	</path>
	<path d="M27.4 81.6c-.8 0-1.5-.6-1.5-1.4-.2-3.1.6-7 1.3-9.7.2-.8 1-1.3 1.8-1.1.8.2 1.3 1 1.1 1.8-.7 2.4-1.3 6-1.2 8.8 0 .9-.6 1.6-1.5 1.6z" transform="matrix(.66 0 0 .66 161.078 57.034)" style="opacity:1;fill:#7e05aa;fill-rule:nonzero;stroke:none;stroke-width:1;stroke-linecap:butt;stroke-linejoin:miter;stroke-miterlimit:4;stroke-dasharray:none;stroke-dashoffset:0">
	</path>
	<g style="font-style:normal;font-weight:400;font-size:84px;font-family:'Playfair Display';white-space:pre;opacity:1;fill:#8808c3;fill-rule:nonzero;stroke:none;stroke-width:1;stroke-linecap:butt;stroke-linejoin:miter;stroke-miterlimit:4;stroke-dasharray:none;stroke-dashoffset:0" aria-label="C&amp;F">
		<path d="M-56.786-34.258q5.544 0 9.072 1.68 3.612 1.596 6.384 3.78 1.68 1.26 2.52.336.924-1.008 1.26-4.62h1.932q-.168 3.108-.252 7.56-.084 4.452-.084 11.76h-1.932q-.588-3.612-1.092-5.712-.504-2.184-1.26-3.696-.672-1.512-1.848-3.024-2.604-3.444-6.552-4.956-3.948-1.596-8.316-1.596-4.116 0-7.476 2.1-3.276 2.016-5.712 5.88-2.352 3.864-3.696 9.324-1.26 5.46-1.26 12.264 0 7.056 1.428 12.516 1.428 5.376 3.948 9.072 2.604 3.696 6.048 5.628 3.528 1.848 7.56 1.848 3.78 0 7.896-1.512t6.468-4.872q1.848-2.436 2.52-5.292.756-2.856 1.344-7.98h1.932q0 7.644.084 12.348.084 4.62.252 7.812h-1.932q-.336-3.612-1.176-4.536-.756-.924-2.604.252-3.108 2.184-6.636 3.864-3.444 1.596-8.904 1.596-7.98 0-14.028-3.612-5.964-3.612-9.324-10.416-3.276-6.804-3.276-16.38 0-9.408 3.444-16.464 3.444-7.056 9.408-11.004 6.048-3.948 13.86-3.948zM-4.412-32.578q3.192 0 5.292.756 2.1.672 3.444 1.764 1.68 1.344 2.352 2.94.756 1.512.756 2.856 0 2.1-1.512 3.276-1.428 1.176-3.192 1.176-1.68 0-3.024-1.092T-1.64-24.01q0-1.848 1.26-3.108 1.26-1.344 3.192-1.512-.336-1.092-2.1-1.848-1.68-.84-4.284-.84-4.284 0-7.056 2.604-2.688 2.52-2.688 7.392 0 2.352.84 4.788.924 2.436 3.444 4.788 1.428-.252 2.94-.336 1.512-.168 2.268-.168 3.36 0 3.36 1.932 0 .756-.672 1.176-.588.42-1.68.42-1.596 0-3.36-.672-1.764-.756-2.772-1.176-4.872 1.428-7.896 4.704-3.024 3.192-3.024 9.072 0 5.796 3.024 9.828 3.024 4.032 8.064 6.216 5.124 2.1 11.424 2.1 4.452 0 8.4-1.008 4.032-1.092 7.056-3.108 3.108-2.016 4.872-4.788 1.764-2.856 1.764-6.468 0-1.596-.672-4.032-.672-2.52-2.772-4.872-2.1-2.436-6.468-3.78l1.008-.84q6.132 1.848 8.736 5.964 2.604 4.032 2.604 9.072 0 5.04-3.024 9.66t-8.736 7.56Q9.7 27.566 1.552 27.566q-7.224 0-13.44-2.52-6.216-2.52-9.996-7.224-3.78-4.704-3.78-11.172 0-4.536 1.764-7.728 1.764-3.276 4.368-5.376 2.604-2.1 5.208-3.192 2.604-1.176 4.2-1.596-4.2-1.848-6.384-4.788-2.1-2.94-2.1-6.048 0-2.016.924-3.864.924-1.932 2.688-3.444 1.764-1.512 4.368-2.352 2.688-.84 6.216-.84zm30.576-1.68q5.208 0 8.736 3.024 3.528 2.94 3.528 8.316 0 4.284-2.352 7.224-2.268 2.856-5.628 4.536-1.932.924-5.124 2.016-3.108 1.092-6.72 2.184-3.528 1.092-6.804 2.184Q8.608-3.766 6.592-3.01 3.484-1.834 1.3-.07-.8 1.61-.8 4.298q0 2.184 1.26 3.696t3.024 2.268q1.848.756 3.444.756 1.176 0 2.94-.42 1.848-.504 2.1-1.428-1.344-.252-2.688-1.176-1.26-1.008-1.26-3.108 0-2.016 1.344-3.192Q10.708.518 12.64.518q2.016 0 3.192 1.26 1.26 1.26 1.26 3.276 0 2.352-1.596 4.032-1.512 1.596-3.864 2.436-2.268.756-4.536.756-2.352 0-4.788-1.008-2.436-1.008-4.032-3.108Q-3.32 5.978-3.32 2.45q0-4.368 2.94-7.308 2.94-3.024 8.652-4.956 2.52-.84 6.132-1.848 3.612-1.008 7.392-2.184 3.864-1.176 6.972-2.604 4.2-1.932 5.712-3.948 1.512-2.016 1.512-4.116 0-3.612-2.94-6.048-2.856-2.436-6.804-2.436-1.008 0-1.68.168-.672.168-.84.588 1.176.588 1.764 1.68.588 1.092.588 2.184 0 1.764-1.428 2.94-1.344 1.176-3.276 1.176-1.596 0-3.024-1.008-1.428-1.092-1.428-3.192 0-2.184 1.428-3.444 1.512-1.26 3.612-1.764 2.184-.588 4.2-.588zM85.627-33.082q-.336 3.192-.504 6.216-.084 2.94-.084 4.536 0 2.016.084 3.78.084 1.764.168 3.108h-1.932q-.588-5.88-1.596-9.24-1.008-3.444-3.528-4.956-2.52-1.512-7.812-1.512H65.13q-2.856 0-4.368.504-1.428.42-1.932 1.932-.504 1.428-.504 4.536v41.664q0 3.024.588 4.536.672 1.512 2.52 2.016 1.848.504 5.376.672v1.68q-2.184-.168-5.544-.168-3.36-.084-6.804-.084-3.276 0-6.132.084-2.856 0-4.62.168v-1.68q2.856-.168 4.284-.672 1.512-.504 2.016-2.016t.504-4.536v-41.664q0-3.108-.504-4.536-.504-1.512-2.016-2.016-1.428-.588-4.284-.672v-1.68q4.116.084 8.82.168 4.704.084 8.82.084h15.456q4.956-.084 8.82-.252zM72.607-3.514v1.68h-16.8v-1.68zm1.596-11.088q-.336 4.788-.336 7.308.084 2.52.084 4.62t.084 4.62q.084 2.52.42 7.308h-1.932q-.336-2.688-.84-5.208-.42-2.604-2.016-4.2-1.512-1.68-5.208-1.68v-1.68q3.696 0 5.124-1.932 1.512-1.932 1.932-4.536.42-2.604.756-4.62z" transform="translate(86.25 84.56)">
		</path>
	</g>
	<path d="M80.039 41.604c-2.605 0-5.089.516-7.374 1.427l-5.844-12.122 1.318-3.092 2.033.232c.184.036.367.055.546.055 1.584 0 2.873-1.468 2.873-3.052S72.303 22 70.719 22h-.053c-.07 0-.142.181-.212.188l-12.647 1.544c-.716.082-1.256.733-1.256 1.454s.541 1.349 1.257 1.431l7.393.746-.74 1.637H32.405c.801-3 1.426-4.194 1.75-5.063.721-1.928 2.254-2.937 4.687-2.937h4.231c.783 0 1.418-.717 1.418-1.5s-.635-1.5-1.418-1.5h-4.231c-3.601 0-6.208 1.934-7.343 4.97-.863 2.311-3.71 10.842-6.505 19.156-1.594-.41-3.254-.586-4.975-.586-11.022 0-19.99 9-19.99 20.022 0 11.021 8.968 20.008 19.99 20.008 11.022 0 19.99-8.961 19.99-19.984 0-8.305-5.094-15.435-12.32-18.449.605-1.801 1.212-3.599 1.801-5.344L46.9 57.694a6.542 6.542 0 0 0-1.288 3.899c0 3.637 2.724 6.584 6.36 6.584.428 0 1.027-.045 1.027-.121v.002l7.6-1.02c2.379 8.381 10.194 14.545 19.327 14.545 11.023 0 20.047-8.967 20.047-19.99.001-11.021-8.911-19.989-19.934-19.989Zm-42.865 19.99c0 9.459-7.696 17.156-17.155 17.156-9.459 0-17.154-7.697-17.154-17.156S10.561 44.44 20.02 44.44c1.405 0 2.763.188 4.071.508-2.736 8.153-5.204 15.562-5.416 16.198a1.418 1.418 0 1 0 2.69.896c.053-.158 2.595-7.791 5.419-16.208 6.104 2.632 10.39 8.703 10.39 15.76zm32.939-17.327a20.047 20.047 0 0 0-9.291 11.881l-4.498-.621 9.021-21.154zm-6.467 12.272c1.271-4.115 4.062-7.558 7.702-9.709l5.562 11.54ZM31.438 32h31.814l-9.84 23.103A6.506 6.506 0 0 0 52.195 55c-1.147 0-2.226.3-3.165.817L30.541 34.661Zm48.601 46.75c-7.7 0-14.229-5.102-16.393-12.1l16.629-2.297a2.769 2.769 0 0 0 .008-5.518L73.9 45.595a17.04 17.04 0 0 1 6.139-1.155c9.459 0 17.154 7.695 17.154 17.154S89.498 78.75 80.039 78.75z" transform="matrix(.51 0 0 .51 20.64 7.677)" style="opacity:1;fill:#7e07b5;fill-rule:nonzero;stroke:none;stroke-width:1;stroke-linecap:butt;stroke-linejoin:miter;stroke-miterlimit:4;stroke-dasharray:none;stroke-dashoffset:0">
	</path>
</svg>
