<svg version="1.0" xmlns="http://www.w3.org/2000/svg" width="21.333" height="21.333" viewBox="0 0 16 16">
	<path d="M.4 1.3C.1 2.1 0 5.6.2 9.1l.3 6.4h15V.5L8.2.2C2.7 0 .8.3.4 1.3zm3.4 4.4C2.8 5.9 2 7 2 8c0 1 .8 2.1 1.8 2.3 1.6.4 1.6.5-.1.6-1 0-2-.6-2.3-1.4-.9-2.3.3-4.5 2.3-4.4 1.7.1 1.7.2.1.6zm5.4 1.8c-.2 1 .1 1.4.7 1 .6-.3 1.1.1 1.1.9 0 1-.9 1.6-2.5 1.6C6 11 5.7 9.9 6.9 5.2c.1-.2.7-.2 1.4.1.6.2 1.1 1.2.9 2.2zm5-1.8c-.6.2-1 .9-.7 1.4.4.5.1 1.7-.4 2.6-.9 1.5-1 1.3-1.1-1.5 0-2.4.4-3.2 1.8-3.1 1 0 1.2.3.4.6z" fill="#7e05aa" />
</svg>
